<svg width="24" height="24" xmlns="http://www.w3.org/2000/svg">
  <path d="M12 24C5.385 24 0 18.615 0 12S5.385 0 12 0s12 5.385 12 12-5.385 12-12 12zm10.12-10.358c-.35-.11-3.172-.952-6.385-.438 1.341 3.684 1.887 6.684 1.992 7.309a10.283 10.283 0 0 0 4.395-6.87h-.002zm-6.115 7.808c-.153-.9-.75-4.032-2.19-7.77l-.066.021c-5.781 2.014-7.854 6.024-8.04 6.399A10.182 10.182 0 0 0 12 22.266c1.42 0 2.775-.291 4.005-.814v-.002zm-11.62-2.58c.232-.399 3.045-5.055 8.332-6.765.135-.045.27-.084.405-.12-.26-.585-.54-1.167-.832-1.74-5.12 1.53-10.085 1.466-10.535 1.455l-.005.312c0 2.633.998 5.037 2.634 6.855v.003zm-2.42-8.955c.46.008 4.683.026 9.477-1.248a65.6 65.6 0 0 0-3.8-5.928 10.29 10.29 0 0 0-5.676 7.177l-.001-.001zM9.6 2.052c.282.38 2.145 2.914 3.822 6 3.645-1.365 5.19-3.44 5.373-3.702A10.195 10.195 0 0 0 12 1.764c-.825 0-1.63.099-2.4.285v.003zm10.335 3.483c-.217.291-1.935 2.493-5.724 4.041a30.867 30.867 0 0 1 .9 2.013c3.411-.429 6.8.258 7.137.33a10.191 10.191 0 0 0-2.314-6.386l.001.002z"/>
</svg>
