<svg width="84" height="10" xmlns="http://www.w3.org/2000/svg">
  <path d="M.332 10V0h6.656v1.696h-4.72v2.64h3.84v1.68h-3.84V10H.332zm17.104 0H10.62V0h6.816v1.648H12.54V4.16h4.016v1.648H12.54v2.544h4.896V10zm10.352 0h-6.464V0h1.952v8.288h4.512V10zm5.616 0h-1.936V0h1.936v10zm8.016-3.76L38.972 10h-2.208l3.52-5.024L36.876 0h2.272l2.304 3.584L43.836 0h2.208l-3.44 4.896L46.156 10h-2.288L41.42 6.24zM61.916 10h-6.464V0h1.952v8.288h4.512V10zm10.464 0h-6.816V0h6.816v1.648h-4.896V4.16H71.5v1.648h-4.016v2.544h4.896V10zm10.704 0h-6.816V0h6.816v1.648h-4.896V4.16h4.016v1.648h-4.016v2.544h4.896V10z" fill-rule="evenodd"/>
</svg>