<svg width="24" height="20" xmlns="http://www.w3.org/2000/svg">
  <path d="M23.954 2.38c-.885.4-1.83.673-2.826.796A5.05 5.05 0 0 0 23.29.384c-.95.569-2.004.984-3.126 1.215A4.845 4.845 0 0 0 16.574 0c-2.717 0-4.92 2.26-4.92 5.042 0 .4.045.783.127 1.152-4.09-.2-7.716-2.213-10.143-5.256-.425.739-.665 1.6-.665 2.537 0 1.752.87 3.294 2.189 4.2a4.822 4.822 0 0 1-2.23-.63v.06c0 2.445 1.694 4.486 3.947 4.95a4.885 4.885 0 0 1-1.296.175c-.315 0-.615-.03-.915-.089.63 2.004 2.444 3.463 4.602 3.505A9.707 9.707 0 0 1 0 17.734 13.74 13.74 0 0 0 7.555 20c9.055 0 14.002-7.685 14.002-14.34 0-.216 0-.431-.015-.646A10.081 10.081 0 0 0 24 2.4l-.046-.02z"/>
</svg>
